<mxfile host="app.diagrams.net" agent="Mozilla/5.0 (Windows NT 10.0; Win64; x64) AppleWebKit/537.36 (KHTML, like Gecko) Chrome/135.0.0.0 Safari/537.36" version="26.2.4">
  <diagram name="Page-1" id="YLNgQcr9oqkXiV2DcZM3">
    <mxGraphModel dx="1428" dy="751" grid="1" gridSize="10" guides="1" tooltips="1" connect="1" arrows="1" fold="1" page="1" pageScale="1" pageWidth="850" pageHeight="1100" math="0" shadow="0">
      <root>
        <mxCell id="0" />
        <mxCell id="1" parent="0" />
        <mxCell id="3wHKJoyNjRvBRqvNKdyH-1" value="" style="rounded=0;whiteSpace=wrap;html=1;" parent="1" vertex="1">
          <mxGeometry x="80" y="40" width="120" height="200" as="geometry" />
        </mxCell>
        <mxCell id="3wHKJoyNjRvBRqvNKdyH-2" value="Home Screen" style="text;html=1;align=center;verticalAlign=middle;whiteSpace=wrap;rounded=0;" parent="1" vertex="1">
          <mxGeometry x="100" y="10" width="80" height="30" as="geometry" />
        </mxCell>
        <mxCell id="3wHKJoyNjRvBRqvNKdyH-3" value="" style="rounded=0;whiteSpace=wrap;html=1;" parent="1" vertex="1">
          <mxGeometry x="240" y="40" width="120" height="200" as="geometry" />
        </mxCell>
        <mxCell id="3wHKJoyNjRvBRqvNKdyH-30" value="" style="rounded=0;whiteSpace=wrap;html=1;" parent="1" vertex="1">
          <mxGeometry x="255" y="75" width="90" height="155" as="geometry" />
        </mxCell>
        <mxCell id="3wHKJoyNjRvBRqvNKdyH-4" value="" style="shape=flexArrow;endArrow=classic;html=1;rounded=0;entryX=0.017;entryY=0.35;entryDx=0;entryDy=0;exitX=1;exitY=0.5;exitDx=0;exitDy=0;entryPerimeter=0;" parent="1" edge="1" source="3wHKJoyNjRvBRqvNKdyH-29">
          <mxGeometry width="50" height="50" relative="1" as="geometry">
            <mxPoint x="189" y="110" as="sourcePoint" />
            <mxPoint x="241.03999999999996" y="110" as="targetPoint" />
          </mxGeometry>
        </mxCell>
        <mxCell id="3wHKJoyNjRvBRqvNKdyH-5" value="List Screen" style="text;html=1;align=center;verticalAlign=middle;whiteSpace=wrap;rounded=0;" parent="1" vertex="1">
          <mxGeometry x="265" y="10" width="70" height="30" as="geometry" />
        </mxCell>
        <mxCell id="3wHKJoyNjRvBRqvNKdyH-11" value="" style="rounded=0;whiteSpace=wrap;html=1;" parent="1" vertex="1">
          <mxGeometry x="240" y="290" width="120" height="200" as="geometry" />
        </mxCell>
        <mxCell id="3wHKJoyNjRvBRqvNKdyH-12" value="" style="shape=flexArrow;endArrow=classic;html=1;rounded=0;entryX=0.25;entryY=0;entryDx=0;entryDy=0;exitX=0.5;exitY=1;exitDx=0;exitDy=0;" parent="1" edge="1" target="vMSaI6ILG6hPNf-TvU-M-15" source="vMSaI6ILG6hPNf-TvU-M-44">
          <mxGeometry width="50" height="50" relative="1" as="geometry">
            <mxPoint x="202" y="400" as="sourcePoint" />
            <mxPoint x="239.96000000000004" y="400" as="targetPoint" />
          </mxGeometry>
        </mxCell>
        <mxCell id="3wHKJoyNjRvBRqvNKdyH-13" value="Form Screen" style="text;html=1;align=center;verticalAlign=middle;whiteSpace=wrap;rounded=0;" parent="1" vertex="1">
          <mxGeometry x="270" y="260" width="60" height="30" as="geometry" />
        </mxCell>
        <mxCell id="3wHKJoyNjRvBRqvNKdyH-16" value="Fill in" style="rounded=0;whiteSpace=wrap;html=1;" parent="1" vertex="1">
          <mxGeometry x="280" y="340" width="70" height="30" as="geometry" />
        </mxCell>
        <mxCell id="3wHKJoyNjRvBRqvNKdyH-17" value="Label" style="text;html=1;align=center;verticalAlign=middle;whiteSpace=wrap;rounded=0;" parent="1" vertex="1">
          <mxGeometry x="230" y="340" width="60" height="30" as="geometry" />
        </mxCell>
        <mxCell id="3wHKJoyNjRvBRqvNKdyH-19" value="Submit" style="rounded=1;whiteSpace=wrap;html=1;" parent="1" vertex="1">
          <mxGeometry x="260" y="440" width="80" height="40" as="geometry" />
        </mxCell>
        <mxCell id="3wHKJoyNjRvBRqvNKdyH-24" value="Label" style="text;html=1;align=center;verticalAlign=middle;whiteSpace=wrap;rounded=0;" parent="1" vertex="1">
          <mxGeometry x="230" y="375" width="60" height="30" as="geometry" />
        </mxCell>
        <mxCell id="3wHKJoyNjRvBRqvNKdyH-26" value="Selector" style="shape=process;whiteSpace=wrap;html=1;backgroundOutline=1;" parent="1" vertex="1">
          <mxGeometry x="285" y="380" width="60" height="20" as="geometry" />
        </mxCell>
        <mxCell id="3wHKJoyNjRvBRqvNKdyH-27" value="View All" style="text;html=1;align=center;verticalAlign=middle;whiteSpace=wrap;rounded=0;" parent="1" vertex="1">
          <mxGeometry x="80" y="75" width="60" height="30" as="geometry" />
        </mxCell>
        <mxCell id="3wHKJoyNjRvBRqvNKdyH-28" value="Type" style="shape=process;whiteSpace=wrap;html=1;backgroundOutline=1;" parent="1" vertex="1">
          <mxGeometry x="90" y="100" width="60" height="20" as="geometry" />
        </mxCell>
        <mxCell id="3wHKJoyNjRvBRqvNKdyH-29" value="Go" style="rounded=1;whiteSpace=wrap;html=1;" parent="1" vertex="1">
          <mxGeometry x="160" y="100" width="30" height="20" as="geometry" />
        </mxCell>
        <mxCell id="3wHKJoyNjRvBRqvNKdyH-32" value="" style="shape=flexArrow;endArrow=classic;html=1;rounded=0;entryX=0;entryY=0.25;entryDx=0;entryDy=0;" parent="1" edge="1">
          <mxGeometry width="50" height="50" relative="1" as="geometry">
            <mxPoint x="350" y="97.25" as="sourcePoint" />
            <mxPoint x="400" y="97.25" as="targetPoint" />
          </mxGeometry>
        </mxCell>
        <mxCell id="3wHKJoyNjRvBRqvNKdyH-33" style="edgeStyle=orthogonalEdgeStyle;rounded=0;orthogonalLoop=1;jettySize=auto;html=1;exitX=0.5;exitY=1;exitDx=0;exitDy=0;" parent="1" source="3wHKJoyNjRvBRqvNKdyH-30" target="3wHKJoyNjRvBRqvNKdyH-30" edge="1">
          <mxGeometry relative="1" as="geometry" />
        </mxCell>
        <mxCell id="3wHKJoyNjRvBRqvNKdyH-35" value="" style="rounded=0;whiteSpace=wrap;html=1;" parent="1" vertex="1">
          <mxGeometry x="400" y="40" width="120" height="200" as="geometry" />
        </mxCell>
        <mxCell id="3wHKJoyNjRvBRqvNKdyH-36" value="Details Screen" style="text;html=1;align=center;verticalAlign=middle;whiteSpace=wrap;rounded=0;" parent="1" vertex="1">
          <mxGeometry x="410" y="10" width="90" height="30" as="geometry" />
        </mxCell>
        <mxCell id="3wHKJoyNjRvBRqvNKdyH-38" value="Create Alerts" style="rounded=1;whiteSpace=wrap;html=1;" parent="1" vertex="1">
          <mxGeometry x="422.5" y="180" width="75" height="20" as="geometry" />
        </mxCell>
        <mxCell id="3wHKJoyNjRvBRqvNKdyH-41" value="Edit" style="rounded=1;whiteSpace=wrap;html=1;" parent="1" vertex="1">
          <mxGeometry x="410" y="210" width="30" height="20" as="geometry" />
        </mxCell>
        <mxCell id="3wHKJoyNjRvBRqvNKdyH-42" value="" style="shape=flexArrow;endArrow=classic;html=1;rounded=0;exitX=0;exitY=0.75;exitDx=0;exitDy=0;" parent="1" source="3wHKJoyNjRvBRqvNKdyH-41" target="3wHKJoyNjRvBRqvNKdyH-11" edge="1">
          <mxGeometry width="50" height="50" relative="1" as="geometry">
            <mxPoint x="372.04" y="260" as="sourcePoint" />
            <mxPoint x="410.00000000000006" y="260" as="targetPoint" />
          </mxGeometry>
        </mxCell>
        <mxCell id="3wHKJoyNjRvBRqvNKdyH-43" value="Delete" style="rounded=1;whiteSpace=wrap;html=1;" parent="1" vertex="1">
          <mxGeometry x="470" y="210" width="40" height="20" as="geometry" />
        </mxCell>
        <mxCell id="3wHKJoyNjRvBRqvNKdyH-45" value="" style="rounded=0;whiteSpace=wrap;html=1;" parent="1" vertex="1">
          <mxGeometry x="410" y="75" width="100" height="65" as="geometry" />
        </mxCell>
        <mxCell id="3wHKJoyNjRvBRqvNKdyH-48" value="Share Notes" style="rounded=1;whiteSpace=wrap;html=1;" parent="1" vertex="1">
          <mxGeometry x="422.5" y="150" width="75" height="20" as="geometry" />
        </mxCell>
        <mxCell id="3wHKJoyNjRvBRqvNKdyH-50" value="" style="rounded=0;whiteSpace=wrap;html=1;" parent="1" vertex="1">
          <mxGeometry x="560" y="280" width="120" height="200" as="geometry" />
        </mxCell>
        <mxCell id="3wHKJoyNjRvBRqvNKdyH-51" value="" style="shape=flexArrow;endArrow=classic;html=1;rounded=0;exitX=1;exitY=0.5;exitDx=0;exitDy=0;entryX=0.25;entryY=0;entryDx=0;entryDy=0;" parent="1" source="3wHKJoyNjRvBRqvNKdyH-48" target="3wHKJoyNjRvBRqvNKdyH-50" edge="1">
          <mxGeometry width="50" height="50" relative="1" as="geometry">
            <mxPoint x="489.9950000000001" y="133" as="sourcePoint" />
            <mxPoint x="571.4300000000001" y="55" as="targetPoint" />
          </mxGeometry>
        </mxCell>
        <mxCell id="3wHKJoyNjRvBRqvNKdyH-55" value="" style="shape=flexArrow;endArrow=classic;html=1;rounded=0;exitX=0;exitY=0.5;exitDx=0;exitDy=0;" parent="1" source="vMSaI6ILG6hPNf-TvU-M-18" edge="1">
          <mxGeometry width="50" height="50" relative="1" as="geometry">
            <mxPoint x="243" y="55" as="sourcePoint" />
            <mxPoint x="199" y="54" as="targetPoint" />
          </mxGeometry>
        </mxCell>
        <mxCell id="vMSaI6ILG6hPNf-TvU-M-4" value="Object in List" style="rounded=1;whiteSpace=wrap;html=1;" vertex="1" parent="1">
          <mxGeometry x="260" y="85" width="80" height="20" as="geometry" />
        </mxCell>
        <mxCell id="vMSaI6ILG6hPNf-TvU-M-5" value="To:" style="rounded=1;whiteSpace=wrap;html=1;align=left;" vertex="1" parent="1">
          <mxGeometry x="565" y="290" width="110" height="20" as="geometry" />
        </mxCell>
        <mxCell id="vMSaI6ILG6hPNf-TvU-M-6" value="From:" style="rounded=1;whiteSpace=wrap;html=1;align=left;" vertex="1" parent="1">
          <mxGeometry x="565" y="315" width="110" height="20" as="geometry" />
        </mxCell>
        <mxCell id="vMSaI6ILG6hPNf-TvU-M-7" value="Phone Email Application" style="text;whiteSpace=wrap;" vertex="1" parent="1">
          <mxGeometry x="600" y="250" width="150" height="20" as="geometry" />
        </mxCell>
        <mxCell id="vMSaI6ILG6hPNf-TvU-M-8" value="&lt;font style=&quot;font-size: 11px;&quot;&gt;Subject: Course Notes&lt;/font&gt;" style="rounded=1;whiteSpace=wrap;html=1;" vertex="1" parent="1">
          <mxGeometry x="563" y="340" width="115" height="20" as="geometry" />
        </mxCell>
        <mxCell id="vMSaI6ILG6hPNf-TvU-M-10" value="Body: (notes)" style="rounded=1;whiteSpace=wrap;html=1;align=left;" vertex="1" parent="1">
          <mxGeometry x="565" y="370" width="110" height="20" as="geometry" />
        </mxCell>
        <mxCell id="vMSaI6ILG6hPNf-TvU-M-13" value="" style="shape=flexArrow;endArrow=classic;html=1;rounded=0;exitX=0;exitY=0.5;exitDx=0;exitDy=0;entryX=0.9;entryY=1;entryDx=0;entryDy=0;entryPerimeter=0;" edge="1" parent="1" source="3wHKJoyNjRvBRqvNKdyH-19" target="3wHKJoyNjRvBRqvNKdyH-1">
          <mxGeometry width="50" height="50" relative="1" as="geometry">
            <mxPoint x="250" y="460" as="sourcePoint" />
            <mxPoint x="202.03999999999996" y="459" as="targetPoint" />
          </mxGeometry>
        </mxCell>
        <mxCell id="vMSaI6ILG6hPNf-TvU-M-14" value="" style="shape=flexArrow;endArrow=classic;html=1;rounded=0;exitX=1;exitY=0.5;exitDx=0;exitDy=0;entryX=0.167;entryY=1.015;entryDx=0;entryDy=0;entryPerimeter=0;" edge="1" parent="1" source="3wHKJoyNjRvBRqvNKdyH-19" target="3wHKJoyNjRvBRqvNKdyH-35">
          <mxGeometry width="50" height="50" relative="1" as="geometry">
            <mxPoint x="430" y="365" as="sourcePoint" />
            <mxPoint x="380" y="440" as="targetPoint" />
          </mxGeometry>
        </mxCell>
        <mxCell id="vMSaI6ILG6hPNf-TvU-M-15" value="Icon" style="whiteSpace=wrap;html=1;aspect=fixed;" vertex="1" parent="1">
          <mxGeometry x="240" y="290" width="30" height="30" as="geometry" />
        </mxCell>
        <mxCell id="vMSaI6ILG6hPNf-TvU-M-17" value="Icon" style="whiteSpace=wrap;html=1;aspect=fixed;" vertex="1" parent="1">
          <mxGeometry x="80" y="40" width="30" height="30" as="geometry" />
        </mxCell>
        <mxCell id="vMSaI6ILG6hPNf-TvU-M-18" value="Icon" style="whiteSpace=wrap;html=1;aspect=fixed;" vertex="1" parent="1">
          <mxGeometry x="240" y="40" width="30" height="30" as="geometry" />
        </mxCell>
        <mxCell id="vMSaI6ILG6hPNf-TvU-M-19" value="Icon" style="whiteSpace=wrap;html=1;aspect=fixed;" vertex="1" parent="1">
          <mxGeometry x="400" y="40" width="30" height="30" as="geometry" />
        </mxCell>
        <mxCell id="vMSaI6ILG6hPNf-TvU-M-25" value="List can be scrolled vertically as needed" style="rounded=0;whiteSpace=wrap;strokeColor=none;fontSize=10;fillColor=none;align=left;" vertex="1" parent="1">
          <mxGeometry x="257.5" y="170" width="85" height="50" as="geometry" />
        </mxCell>
        <mxCell id="vMSaI6ILG6hPNf-TvU-M-26" value="List of all objects of selected type" style="text;whiteSpace=wrap;fontSize=11;" vertex="1" parent="1">
          <mxGeometry x="257.5" y="110" width="85" height="40" as="geometry" />
        </mxCell>
        <mxCell id="vMSaI6ILG6hPNf-TvU-M-27" value="" style="endArrow=classic;startArrow=classic;html=1;rounded=0;" edge="1" parent="1">
          <mxGeometry width="50" height="50" relative="1" as="geometry">
            <mxPoint x="339" y="225" as="sourcePoint" />
            <mxPoint x="339" y="165" as="targetPoint" />
          </mxGeometry>
        </mxCell>
        <mxCell id="vMSaI6ILG6hPNf-TvU-M-29" value="" style="shape=flexArrow;endArrow=classic;html=1;rounded=0;entryX=0;entryY=0.25;entryDx=0;entryDy=0;exitX=1;exitY=0.5;exitDx=0;exitDy=0;" edge="1" parent="1" source="vMSaI6ILG6hPNf-TvU-M-37" target="vMSaI6ILG6hPNf-TvU-M-30">
          <mxGeometry width="50" height="50" relative="1" as="geometry">
            <mxPoint x="525" y="90" as="sourcePoint" />
            <mxPoint x="565" y="85" as="targetPoint" />
          </mxGeometry>
        </mxCell>
        <mxCell id="vMSaI6ILG6hPNf-TvU-M-30" value="" style="rounded=0;whiteSpace=wrap;html=1;" vertex="1" parent="1">
          <mxGeometry x="570" y="40" width="120" height="200" as="geometry" />
        </mxCell>
        <mxCell id="vMSaI6ILG6hPNf-TvU-M-31" value="Related Object&#39;s Details Screen" style="text;html=1;align=center;verticalAlign=middle;whiteSpace=wrap;rounded=0;" vertex="1" parent="1">
          <mxGeometry x="585" y="10" width="95" height="30" as="geometry" />
        </mxCell>
        <mxCell id="vMSaI6ILG6hPNf-TvU-M-32" value="Icon" style="whiteSpace=wrap;html=1;aspect=fixed;" vertex="1" parent="1">
          <mxGeometry x="570" y="40" width="30" height="30" as="geometry" />
        </mxCell>
        <mxCell id="vMSaI6ILG6hPNf-TvU-M-33" value="All data of related object" style="rounded=0;whiteSpace=wrap;html=1;" vertex="1" parent="1">
          <mxGeometry x="580" y="77.5" width="100" height="65" as="geometry" />
        </mxCell>
        <mxCell id="vMSaI6ILG6hPNf-TvU-M-35" value="" style="shape=flexArrow;endArrow=classic;html=1;rounded=0;exitX=0.5;exitY=1;exitDx=0;exitDy=0;" edge="1" parent="1" source="3wHKJoyNjRvBRqvNKdyH-43">
          <mxGeometry width="50" height="50" relative="1" as="geometry">
            <mxPoint x="450" y="350" as="sourcePoint" />
            <mxPoint x="490" y="290" as="targetPoint" />
          </mxGeometry>
        </mxCell>
        <mxCell id="vMSaI6ILG6hPNf-TvU-M-36" value="Confirmation Prompt" style="rounded=1;whiteSpace=wrap;html=1;" vertex="1" parent="1">
          <mxGeometry x="451.25" y="290" width="77.5" height="30" as="geometry" />
        </mxCell>
        <mxCell id="vMSaI6ILG6hPNf-TvU-M-37" value="&lt;font style=&quot;font-size: 10px;&quot;&gt;Related Object&lt;/font&gt;" style="rounded=1;whiteSpace=wrap;html=1;" vertex="1" parent="1">
          <mxGeometry x="425" y="80" width="70" height="20" as="geometry" />
        </mxCell>
        <mxCell id="vMSaI6ILG6hPNf-TvU-M-38" value="All data for selected object" style="text;whiteSpace=wrap;align=center;" vertex="1" parent="1">
          <mxGeometry x="415" y="100" width="90" height="40" as="geometry" />
        </mxCell>
        <mxCell id="vMSaI6ILG6hPNf-TvU-M-39" value="Edit" style="rounded=1;whiteSpace=wrap;html=1;" vertex="1" parent="1">
          <mxGeometry x="590" y="210" width="30" height="20" as="geometry" />
        </mxCell>
        <mxCell id="vMSaI6ILG6hPNf-TvU-M-40" value="Delete" style="rounded=1;whiteSpace=wrap;html=1;" vertex="1" parent="1">
          <mxGeometry x="635" y="210" width="40" height="20" as="geometry" />
        </mxCell>
        <mxCell id="vMSaI6ILG6hPNf-TvU-M-43" value="Create New" style="text;html=1;align=center;verticalAlign=middle;whiteSpace=wrap;rounded=0;" vertex="1" parent="1">
          <mxGeometry x="85" y="140" width="80" height="25" as="geometry" />
        </mxCell>
        <mxCell id="vMSaI6ILG6hPNf-TvU-M-44" value="Go" style="rounded=1;whiteSpace=wrap;html=1;" vertex="1" parent="1">
          <mxGeometry x="165" y="165" width="30" height="20" as="geometry" />
        </mxCell>
        <mxCell id="vMSaI6ILG6hPNf-TvU-M-45" value="Type" style="shape=process;whiteSpace=wrap;html=1;backgroundOutline=1;" vertex="1" parent="1">
          <mxGeometry x="95" y="165" width="60" height="20" as="geometry" />
        </mxCell>
        <mxCell id="vMSaI6ILG6hPNf-TvU-M-47" value="User is returned to previous screen upon successful submission" style="text;html=1;align=center;verticalAlign=middle;whiteSpace=wrap;rounded=0;" vertex="1" parent="1">
          <mxGeometry x="225" y="510" width="150" height="30" as="geometry" />
        </mxCell>
      </root>
    </mxGraphModel>
  </diagram>
</mxfile>
